<svg width="104" height="15" viewBox="0 0 104 15" fill="none" xmlns="http://www.w3.org/2000/svg">
<path d="M0.695391 14.5V0.399999H6.21539C7.81539 0.399999 9.17539 0.679999 10.2954 1.24C11.4287 1.78667 12.2887 2.58667 12.8754 3.64C13.4754 4.68 13.7754 5.94667 13.7754 7.44C13.7754 8.93333 13.4754 10.2067 12.8754 11.26C12.2887 12.3133 11.4287 13.12 10.2954 13.68C9.17539 14.2267 7.81539 14.5 6.21539 14.5H0.695391ZM3.79539 11.96H6.03539C7.54206 11.96 8.66872 11.5867 9.41539 10.84C10.1621 10.0933 10.5354 8.96 10.5354 7.44C10.5354 5.92 10.1554 4.79333 9.39539 4.06C8.64872 3.31333 7.52872 2.94 6.03539 2.94H3.79539V11.96ZM19.2437 14.72C18.5237 14.72 17.877 14.58 17.3037 14.3C16.7303 14.02 16.2837 13.64 15.9637 13.16C15.6437 12.68 15.4837 12.14 15.4837 11.54C15.4837 10.82 15.6703 10.2533 16.0437 9.84C16.417 9.41333 17.0237 9.11333 17.8637 8.94C18.7037 8.75333 19.817 8.66 21.2037 8.66H22.2637V10.22H21.2237C20.7037 10.22 20.2637 10.24 19.9037 10.28C19.557 10.32 19.2703 10.3933 19.0437 10.5C18.817 10.5933 18.6503 10.7133 18.5437 10.86C18.4503 11.0067 18.4037 11.1933 18.4037 11.42C18.4037 11.7933 18.5303 12.1 18.7837 12.34C19.0503 12.58 19.4303 12.7 19.9237 12.7C20.3103 12.7 20.6503 12.6133 20.9437 12.44C21.2503 12.2533 21.4903 12.0067 21.6637 11.7C21.837 11.38 21.9237 11.02 21.9237 10.62V8.32C21.9237 7.73333 21.7903 7.32 21.5237 7.08C21.257 6.82667 20.8037 6.7 20.1637 6.7C19.6303 6.7 19.0637 6.78667 18.4637 6.96C17.877 7.12 17.2903 7.36667 16.7037 7.7L15.8837 5.68C16.2303 5.44 16.6503 5.23333 17.1437 5.06C17.6503 4.87333 18.177 4.73333 18.7237 4.64C19.2703 4.53333 19.7903 4.48 20.2837 4.48C21.3103 4.48 22.1503 4.63333 22.8037 4.94C23.4703 5.23333 23.9703 5.69333 24.3037 6.32C24.637 6.93333 24.8037 7.72667 24.8037 8.7V14.5H21.9837V12.52H22.1237C22.0437 12.9733 21.8703 13.3667 21.6037 13.7C21.3503 14.02 21.0237 14.2733 20.6237 14.46C20.2237 14.6333 19.7637 14.72 19.2437 14.72ZM30.8165 14.72C30.2432 14.72 29.6898 14.6733 29.1565 14.58C28.6232 14.4867 28.1365 14.36 27.6965 14.2C27.2565 14.04 26.8698 13.84 26.5365 13.6L27.2565 11.64C27.5898 11.84 27.9498 12.02 28.3365 12.18C28.7365 12.3267 29.1498 12.44 29.5765 12.52C30.0032 12.6 30.4232 12.64 30.8365 12.64C31.4098 12.64 31.8232 12.5533 32.0765 12.38C32.3432 12.1933 32.4765 11.9533 32.4765 11.66C32.4765 11.3933 32.3898 11.1933 32.2165 11.06C32.0432 10.9267 31.7898 10.8333 31.4565 10.78L29.3565 10.4C28.5298 10.2533 27.8898 9.95333 27.4365 9.5C26.9965 9.03333 26.7765 8.44 26.7765 7.72C26.7765 7.05333 26.9632 6.48 27.3365 6C27.7098 5.50667 28.2232 5.13333 28.8765 4.88C29.5432 4.61333 30.2965 4.48 31.1365 4.48C31.6165 4.48 32.0832 4.52 32.5365 4.6C32.9898 4.68 33.4165 4.8 33.8165 4.96C34.2298 5.12 34.5965 5.33333 34.9165 5.6L34.1565 7.54C33.9032 7.34 33.6032 7.16667 33.2565 7.02C32.9098 6.87333 32.5565 6.76 32.1965 6.68C31.8365 6.58667 31.4965 6.54 31.1765 6.54C30.5765 6.54 30.1432 6.64 29.8765 6.84C29.6098 7.02667 29.4765 7.26667 29.4765 7.56C29.4765 7.78667 29.5498 7.98 29.6965 8.14C29.8565 8.28667 30.0965 8.38667 30.4165 8.44L32.5165 8.82C33.3832 8.96667 34.0432 9.26 34.4965 9.7C34.9498 10.1267 35.1765 10.7133 35.1765 11.46C35.1765 12.14 34.9965 12.7267 34.6365 13.22C34.2765 13.7 33.7698 14.0733 33.1165 14.34C32.4632 14.5933 31.6965 14.72 30.8165 14.72ZM36.9002 14.5V0.399999H39.9202V6.52H39.6402C39.9469 5.86667 40.4002 5.36667 41.0002 5.02C41.6136 4.66 42.3069 4.48 43.0802 4.48C43.8669 4.48 44.5136 4.63333 45.0202 4.94C45.5269 5.23333 45.9069 5.68667 46.1602 6.3C46.4136 6.9 46.5402 7.66667 46.5402 8.6V14.5H43.5202V8.74C43.5202 8.28667 43.4602 7.92 43.3402 7.64C43.2336 7.34667 43.0669 7.14 42.8402 7.02C42.6269 6.88667 42.3536 6.82 42.0202 6.82C41.5936 6.82 41.2202 6.91333 40.9002 7.1C40.5936 7.27333 40.3536 7.52667 40.1802 7.86C40.0069 8.19333 39.9202 8.58 39.9202 9.02V14.5H36.9002Z" fill="#544FDE"/>
<path d="M49.0548 14.5V0.399999H55.5148C57.0214 0.399999 58.1814 0.726666 58.9948 1.38C59.8214 2.03333 60.2348 2.92667 60.2348 4.06C60.2348 4.9 59.9948 5.61333 59.5148 6.2C59.0348 6.78667 58.3748 7.18 57.5348 7.38V7.06C58.1881 7.16667 58.7414 7.37333 59.1948 7.68C59.6481 7.98667 59.9948 8.38 60.2348 8.86C60.4881 9.34 60.6148 9.89333 60.6148 10.52C60.6148 11.3467 60.4148 12.06 60.0148 12.66C59.6281 13.26 59.0681 13.72 58.3348 14.04C57.6148 14.3467 56.7481 14.5 55.7348 14.5H49.0548ZM52.0148 12.2H55.3148C55.6348 12.2 55.9214 12.1733 56.1748 12.12C56.4281 12.0667 56.6414 11.9933 56.8148 11.9C57.0014 11.8067 57.1548 11.6867 57.2748 11.54C57.3948 11.38 57.4814 11.2 57.5348 11C57.6014 10.8 57.6348 10.58 57.6348 10.34C57.6348 10.0867 57.6014 9.86667 57.5348 9.68C57.4814 9.48 57.3948 9.30667 57.2748 9.16C57.1548 9.01333 57.0014 8.89333 56.8148 8.8C56.6414 8.69333 56.4281 8.62 56.1748 8.58C55.9214 8.52667 55.6348 8.5 55.3148 8.5H52.0148V12.2ZM52.0148 6.2H54.9748C55.7481 6.2 56.3214 6.05333 56.6948 5.76C57.0681 5.46667 57.2548 5.02667 57.2548 4.44C57.2548 3.86667 57.0681 3.43333 56.6948 3.14C56.3214 2.84667 55.7481 2.7 54.9748 2.7H52.0148V6.2ZM67.421 14.72C66.3677 14.72 65.4477 14.5133 64.661 14.1C63.8877 13.6867 63.2877 13.0933 62.861 12.32C62.4343 11.5467 62.221 10.6333 62.221 9.58C62.221 8.52667 62.4343 7.62 62.861 6.86C63.2877 6.1 63.8877 5.51333 64.661 5.1C65.4477 4.68667 66.3677 4.48 67.421 4.48C68.4743 4.48 69.3877 4.68667 70.161 5.1C70.9477 5.51333 71.5543 6.10667 71.981 6.88C72.421 7.64 72.641 8.54 72.641 9.58C72.641 10.6333 72.421 11.5467 71.981 12.32C71.5543 13.0933 70.9477 13.6867 70.161 14.1C69.3877 14.5133 68.4743 14.72 67.421 14.72ZM67.421 12.46C68.0743 12.46 68.601 12.2267 69.001 11.76C69.401 11.28 69.601 10.5533 69.601 9.58C69.601 8.60667 69.401 7.89333 69.001 7.44C68.601 6.97333 68.0743 6.74 67.421 6.74C66.781 6.74 66.261 6.97333 65.861 7.44C65.461 7.89333 65.261 8.60667 65.261 9.58C65.261 10.5533 65.461 11.28 65.861 11.76C66.261 12.2267 66.781 12.46 67.421 12.46ZM77.7984 14.72C77.0784 14.72 76.4317 14.58 75.8584 14.3C75.285 14.02 74.8384 13.64 74.5184 13.16C74.1984 12.68 74.0384 12.14 74.0384 11.54C74.0384 10.82 74.225 10.2533 74.5984 9.84C74.9717 9.41333 75.5784 9.11333 76.4184 8.94C77.2584 8.75333 78.3717 8.66 79.7584 8.66H80.8184V10.22H79.7784C79.2584 10.22 78.8184 10.24 78.4584 10.28C78.1117 10.32 77.825 10.3933 77.5984 10.5C77.3717 10.5933 77.205 10.7133 77.0984 10.86C77.005 11.0067 76.9584 11.1933 76.9584 11.42C76.9584 11.7933 77.085 12.1 77.3384 12.34C77.605 12.58 77.985 12.7 78.4784 12.7C78.865 12.7 79.205 12.6133 79.4984 12.44C79.805 12.2533 80.045 12.0067 80.2184 11.7C80.3917 11.38 80.4784 11.02 80.4784 10.62V8.32C80.4784 7.73333 80.345 7.32 80.0784 7.08C79.8117 6.82667 79.3584 6.7 78.7184 6.7C78.185 6.7 77.6184 6.78667 77.0184 6.96C76.4317 7.12 75.845 7.36667 75.2584 7.7L74.4384 5.68C74.785 5.44 75.205 5.23333 75.6984 5.06C76.205 4.87333 76.7317 4.73333 77.2784 4.64C77.825 4.53333 78.345 4.48 78.8384 4.48C79.865 4.48 80.705 4.63333 81.3584 4.94C82.025 5.23333 82.525 5.69333 82.8584 6.32C83.1917 6.93333 83.3584 7.72667 83.3584 8.7V14.5H80.5384V12.52H80.6784C80.5984 12.9733 80.425 13.3667 80.1584 13.7C79.905 14.02 79.5784 14.2733 79.1784 14.46C78.7784 14.6333 78.3184 14.72 77.7984 14.72ZM85.6112 14.5V4.68H88.5712V7.08H88.3712C88.5312 6.28 88.8778 5.66667 89.4112 5.24C89.9578 4.8 90.6778 4.54667 91.5712 4.48L92.4512 4.42L92.6312 6.96L90.9312 7.14C90.1712 7.20667 89.6045 7.42667 89.2312 7.8C88.8712 8.17333 88.6912 8.71333 88.6912 9.42V14.5H85.6112ZM97.4976 14.72C96.6442 14.72 95.8909 14.5133 95.2376 14.1C94.5976 13.6867 94.0976 13.0933 93.7376 12.32C93.3776 11.5467 93.1976 10.6333 93.1976 9.58C93.1976 8.52667 93.3776 7.62 93.7376 6.86C94.0976 6.1 94.5976 5.51333 95.2376 5.1C95.8909 4.68667 96.6442 4.48 97.4976 4.48C98.2709 4.48 98.9509 4.66667 99.5376 5.04C100.138 5.41333 100.544 5.9 100.758 6.5H100.538V0.399999H103.558V14.5H100.598V12.56H100.778C100.591 13.2133 100.191 13.74 99.5776 14.14C98.9776 14.5267 98.2842 14.72 97.4976 14.72ZM98.3976 12.46C99.0509 12.46 99.5776 12.2267 99.9776 11.76C100.378 11.28 100.578 10.5533 100.578 9.58C100.578 8.60667 100.378 7.89333 99.9776 7.44C99.5776 6.97333 99.0509 6.74 98.3976 6.74C97.7576 6.74 97.2376 6.97333 96.8376 7.44C96.4376 7.89333 96.2376 8.60667 96.2376 9.58C96.2376 10.5533 96.4376 11.28 96.8376 11.76C97.2376 12.2267 97.7576 12.46 98.3976 12.46Z" fill="black"/>
</svg>
