<svg width="24" height="24" viewBox="0 0 24 24" fill="none" xmlns="http://www.w3.org/2000/svg">
<g clip-path="url(#clip0_535_15970)">
<path d="M11.9976 22.854C12.4176 22.8443 12.8206 22.6864 13.1353 22.4083C13.4501 22.1301 13.6564 21.7496 13.7176 21.334H10.2109C10.2739 21.7609 10.4898 22.1503 10.8185 22.4299C11.1471 22.7095 11.5662 22.8602 11.9976 22.854V22.854Z" fill="#718096"/>
<path d="M21.8979 18.7536L21.6712 18.5536C21.0282 17.9807 20.4654 17.3236 19.9979 16.6003C19.4874 15.602 19.1814 14.5117 19.0979 13.3936V10.1003C19.0952 9.70023 19.0595 9.3011 18.9913 8.90693C17.862 8.67482 16.8476 8.05961 16.1199 7.16545C15.3922 6.27129 14.9958 5.15312 14.9979 4.00026V3.58026C14.3019 3.23772 13.554 3.01247 12.7846 2.91359V2.07359C12.7846 1.83755 12.6908 1.61118 12.5239 1.44427C12.357 1.27736 12.1306 1.18359 11.8946 1.18359C11.6585 1.18359 11.4322 1.27736 11.2653 1.44427C11.0984 1.61118 11.0046 1.83755 11.0046 2.07359V2.94693C9.28173 3.18996 7.70497 4.04809 6.5654 5.36288C5.42583 6.67768 4.8004 8.36035 4.80458 10.1003V13.3936C4.72109 14.5117 4.4151 15.602 3.90458 16.6003C3.44517 17.3218 2.89138 17.9788 2.25792 18.5536L2.03125 18.7536V20.6336H21.8979V18.7536Z" fill="#718096"/>
<path d="M19.9974 7.33268C21.8383 7.33268 23.3307 5.8403 23.3307 3.99935C23.3307 2.1584 21.8383 0.666016 19.9974 0.666016C18.1564 0.666016 16.6641 2.1584 16.6641 3.99935C16.6641 5.8403 18.1564 7.33268 19.9974 7.33268Z" fill="#544FDE"/>
</g>
<defs>
<clipPath id="clip0_535_15970">
<rect width="24" height="24" fill="white"/>
</clipPath>
</defs>
</svg>
